<svg xmlns="http://www.w3.org/2000/svg" viewBox="0 0 568.5 262.5" xml:space="preserve"><path fill="#002856" d="M100.3 206.4c5.6 19.1-.7 25.4-4.1 27.4H125c2.6-10.7 6.3-29.3 8.2-38.7.3-1.1.5-2.2.6-3.3.3-1.6.5-2.5.5-2.5l-.2.1c.1-1.5.2-3.1.2-4.7 0-.9-.1-1.8-.1-2.7 0-.3-.1-.6-.1-.9-.1-.6-.1-1.1-.2-1.7 0-.3-.1-.6-.1-1-.1-.5-.1-1-.2-1.5-.1-.3-.1-.7-.2-1-.1-.5-.2-.9-.3-1.4-.1-.4-.2-.7-.3-1-.1-.4-.2-.8-.3-1.3-.1-.3-.2-.7-.3-1-.1-.4-.2-.8-.4-1.2-.1-.3-.2-.7-.4-1-.1-.4-.3-.8-.4-1.1-.1-.3-.3-.7-.4-1-.2-.4-.3-.7-.5-1.1-.1-.3-.3-.6-.5-.9-.2-.3-.3-.7-.5-1-.2-.3-.3-.6-.5-.9-.2-.3-.3-.7-.5-1-.2-.3-.3-.6-.5-.9-.2-.3-.4-.6-.6-1-.2-.3-.4-.6-.5-.9l-.6-.9c-.2-.3-.4-.6-.6-.8l-.6-.9c-.2-.3-.4-.5-.6-.8-.2-.3-.4-.6-.6-.8-.2-.3-.4-.5-.6-.8-.2-.3-.4-.5-.6-.8-.2-.3-.4-.5-.6-.8-.2-.3-.4-.5-.6-.8-.2-.3-.4-.5-.6-.8-.2-.2-.4-.5-.6-.7-.2-.3-.4-.6-.7-.8-.2-.2-.4-.5-.6-.7-.4-.4-.7-.9-1.1-1.3-.2-.2-.4-.5-.6-.7-.2-.3-.4-.5-.6-.8-.2-.2-.4-.5-.5-.7-.2-.2-.4-.5-.6-.7-.2-.2-.3-.5-.5-.7-.2-.2-.4-.5-.6-.7-.2-.2-.3-.5-.5-.7-.2-.2-.4-.5-.5-.7-.2-.2-.3-.4-.5-.7-.2-.2-.3-.5-.5-.7-.1-.2-.3-.4-.4-.7-.2-.2-.3-.5-.5-.7-.1-.2-.3-.5-.4-.7-.1-.2-.3-.5-.4-.7-.1-.2-.2-.5-.4-.7-.1-.2-.3-.5-.4-.7-.1-.2-.2-.5-.3-.7-.1-.2-.2-.5-.3-.7-.1-.2-.2-.5-.3-.7-.1-.2-.2-.5-.3-.7-.1-.2-.1-.5-.2-.7-.1-.2-.1-.5-.2-.7-.1-.2-.1-.5-.1-.7 0-.3-.1-.5-.1-.8 0-.2-.1-.5-.1-.7 0-.3-.1-.7-.1-1 0-.7-.8-1.1-1.4-.6-.1.1-.2.2-.4.3l-.1.1c-.1.1-.2.2-.3.2l-.3.3-.3.3c-.1.1-.2.2-.4.3l-.3.3c-.1.1-.3.2-.4.4-.1.1-.2.2-.3.4l-.4.4c-.1.1-.2.3-.3.4-.1.1-.2.3-.4.4-.1.1-.2.3-.3.4-.1.2-.2.3-.3.5-.1.1-.2.3-.3.4-.1.2-.2.3-.3.5-.1.2-.2.3-.3.5-.1.2-.2.4-.3.5-.1.2-.2.3-.2.5-.1.2-.1.4-.2.6-.1.2-.1.3-.2.5s-.1.4-.2.6c0 .2-.1.3-.1.5s-.1.4-.1.6v1.6c0 .2.1.5.1.7 0 .2.1.3.1.5.1.3.2.5.3.8.1.1.1.3.1.4.2.4.4.8.7 1.2 5.3 8.3 11 21.8 2.8 24.9-1.3.5-2.7.9-4.3 1.3-.6.2-1.3.3-1.9.4-1.7.3-3.4.5-5.3.6H91c-7.3 0-15.9-2.3-25.1-9.6 0 0 19.9 9.5 31.9 5.5 0 0-6.7-2.2-12.7-19.9-6-17.7-7.2-27.4-17.6-24.5 0 0 9.1 28.6 15.5 36.4 0 0-10-8.9-15.5-27.5C62.2 113 53 114.4 53 114.4s7.5 31.6 16.3 41.3c0 0-5.8-2.6-13.4-21.4-4-9.8-7.4-26.5-19.8-23.4 0 0 14.6 30 14 36 0 0-1.6-3.8-7.5-16.2-2.7-5.7-3.8-19.5-18-19.1 0 0 5.1 11.4 6.6 19.9 1.6 8.6 6.3 26.4 31.6 43.3 17 11.2 31.6 19.5 37.5 31.6zm-34.1-45.7zm163.9-13.5c-.1.4-.3.7-.5 1.2-.4 1.1-1 2.3-1.7 3.6-.7 1.3-1.4 2.6-2.2 3.9-.8 1.3-1.7 2.6-2.5 3.7-.8 1.2-1.7 2.2-2.5 3.1-1.6 1.7-3.2 2.6-3.2 2.6s.7-1.4 1.9-3.2c7.3-10.4 17.7-32.5 17.7-32.5s-5.8-1.8-13.1 11.9c-4.5 8.4-10 14.3-13 17.4-.1.1-.3.2-.4.3-1 .7-2.2 1.2-2.2 1.2s.4-.6 1.1-1.5c.4-.5.8-1 1.3-1.7s1-1.4 1.6-2.2c.6-.8 1.2-1.7 1.9-2.6.7-.9 1.3-1.9 2.1-3 .8-1 1.4-2.1 2.2-3.2.7-1.1 1.5-2.2 2.3-3.3.7-1.1 1.5-2.2 2.2-3.3l2.1-3.3c.6-1.1 1.4-2.1 1.9-3.1.6-1 1.1-1.9 1.6-2.8.5-.9 1-1.7 1.3-2.4.4-.7.7-1.4 1-1.9.5-1 4.7-10.5 4.7-10.5-8.5-2.8-13.7 4.3-17.7 12-7.2 12-21.2 33-25.1 31.4-2.9-1.2 6.9-15.9 12-27.5 4-7.8 7.5-14.7 7.5-14.7-8.4-2.9-13.4 3.1-17.1 10.2-1.2 2.1-2.1 3.8-2.4 4.6-1.1 2.4-19.6 33.7-26.5 33.7-7 0-10.4-20.6-11-23.7-.2-.5-.4-1.4-.6-1.8-.1-.1-.2-.2-.2-.4-.2-.2-.3-.5-.5-.7-.1-.1-.2-.2-.3-.4-.2-.2-.3-.4-.5-.5-.1-.1-.3-.2-.4-.3-.2-.1-.3-.3-.5-.4-.1-.1-.3-.2-.4-.3l-.6-.3c-.2-.1-.3-.1-.5-.2s-.4-.2-.6-.2c-.2-.1-.3-.1-.5-.2s-.4-.1-.6-.2c-.2 0-.3-.1-.5-.1s-.4-.1-.6-.1c-.2 0-.3 0-.5-.1h-3.3c-.2 0-.4 0-.6.1-.2 0-.3 0-.5.1-.2 0-.4.1-.6.1-.1 0-.3 0-.4.1-.2 0-.4.1-.5.1-.1 0-.3.1-.4.1-.2 0-.3.1-.5.1-.1 0-.2 0-.3.1-.2.1-.4.1-.6.2-.5.1-.7.8-.3 1.2.3.2.6.5.8.7.2.2.4.3.5.5.2.2.4.4.5.6.2.2.3.4.5.5.2.2.3.4.5.6.2.2.3.4.4.6.2.2.3.4.4.6.1.2.3.4.4.6.1.2.3.5.4.7.1.2.3.4.4.7.1.2.2.3.3.5 1.6 5.2 4.7 10.5.9 25.4-3.2 12.6 2.2 23.4 8.3 31.1 3.3 9.1 1.8 22.8-.1 32.8H181c-4.1-29.6 10.7-38.5 13.5-39.9 10.2-4.8 20.8-10.7 28.8-23.3 14-22.6 8.3-22.9 6.8-23.1z"/>
    <path fill="#00B2E3"
          d="M163.1 41.8c-6.4-18.2-27.2-14.8-34.4-5.6-3.3 4.4-4.9 10.1-5.5 15.6-3-4.9-6.9-8.9-12.3-10-20.2-3.2-22 23.3-10 48 4.5 8.7 18.7 28.7 27.8 30.5.7.6 3.9-3.3 3.2-3.9-2.8 0-18.1-14.5-25.2-28.9-4.9-9.4-10-27.2-4.9-35.7 2-3.3 4-4.3 7.8-1.7 6.4 4.1 11.9 15.9 14.3 22.7.6 3.1 7.6 1 7.5-2-.1-.7-.2-1.5-.4-2.2-2.8-14.4 6-33.9 12.7-26.9 7.7 8 6.4 40.9 3.5 51.6-.8 3.7-4 13-7.6 19.4-1.9 3.1-5.2 7.2-10.2 10.1 0 0-1.8 3.2.7 4.7 0 0 6.7-1.1 16-12.5 0 0 4.3-5.6 8.4-15.4.7-1.5 1.4-3.1 2.2-4.9 6.9-17.3 11.2-40.3 6.4-52.9z"/>
    <path fill="#789904"
          d="M194.3 63.8c-9.3-1.6-18.6 3.7-23.2 13.3-.2.5-.5 1-.7 1.5-.2.6 0 1.2.5 1.5.2.1.3.1.5.1.4 0 .8-.2 1-.6l.3-.6c4.2-6.6 12-9.8 21-8.7 3 .4 4.3-1.1 4.5-2.4.4-1.6-.9-3.6-3.9-4.1z"/>
    <path fill="#00B2E3"
          d="M194.6 98c-1.1-4-3.6-7.2-7-9.2-6.6-3.8-14.7-3-21.2 2.1-7.8 6.2-10.4 16.2-7 26.8.1.3.4.6.8.8.1.1.3.1.4.1.3 0 .6-.1.8-.3.3-.3.5-.8.3-1.2-2.6-8.9.3-17.8 7.3-22.7 5-3.5 10.7-3.7 15.1-.4 1.7 1.3 2.8 4 2.4 4.8-.1.1-.6.2-1.3-.1l-.2-.1c-1.7-.5-3.6-1.1-5.6-.5-2.1.6-3.8 1.9-4.8 3.8s-1.3 4.1-.7 6.1c1.1 3.8 5 6.2 8.1 6.8 2.2.4 4.5 0 6.6-1.1 1.8-1 3.4-2.5 4.6-4.3 2.2-3.3 2.6-6.9 1.4-11.4z"/>
    <path fill="#789904"
          d="M180.8 124.4c-.5-3.1-2.9-5.5-6.1-6.4-2.8-.7-5.4-.1-8 1.9-2.4 1.8-3.7 4.3-3.8 7.2-.1 3.1 1.4 6.3 3.8 8.3.2.2.5.3.7.3.3 0 .6-.1.8-.3.4-.4.5-1 .2-1.5-1.5-2.2-2.2-4.3-1.9-5.9.2-.9.8-1.7 1.8-2.2.4-.2.7-.3.7-.3s.1.2.1.5v.2c0 1.2.1 2.6 1 3.8.9 1.3 2.2 2.1 3.7 2.4 1.5.3 3.1-.1 4.3-1 2.3-1.6 3-4.7 2.7-7z"/>
    <path fill="#00B2E3"
          d="M82.2 96.3c-3.4-3.6-7.4-5.7-10.7-5.5-3.4.1-5.8 1.3-7.7 3.6-2.1 2.8-2.5 6.3-.9 9.1 1.2 2 3.8 4.1 6.7 3.9 1.6-.1 3-.8 4.1-2 1.1-1.2 1.6-2.7 1.5-4.3-.1-1.6-1-2.8-1.7-3.8l-.1-.1c.3-.1.6-.1.8-.1 1.3-.2 3.2.5 5 2 3 2.5 6.7 7.7 7 14.2 0 .6.5 1.1 1.1 1.1.6 0 1.1-.5 1.2-1.1.5-6-1.8-12.2-6.3-17z"/>
    <path fill="#789904"
          d="M98.9 106.7c-1.2-15.7-10.7-30.3-24-37.3-1.2-.7-3.1-1.4-4.9-1.2-1.2.1-2 .6-2.5 1.4-.4.8-.4 1.8.2 2.9.9 1.6 2.6 2.8 3.9 3.6 4.5 2.6 8.6 5.8 12.3 9.6 6.5 6.7 10.8 14.6 12.2 22.3.3 1.5.5 2.9.6 4.3.1.6.6 1 1.2 1h.1c.6 0 1.1-.5 1.1-1.2 0-1.8-.1-3.6-.2-5.4z"/>
    <path d="M265.9 203.7v-17.3c0-.2.1-.5.3-.6.2-.2.5-.3.8-.3h4.4c1.7 0 3 .5 4.1 1.4 1 .9 1.5 2.4 1.5 4.4v7.4c0 2-.5 3.5-1.5 4.4-1 .9-2.4 1.4-4.1 1.4H267c-.3 0-.6-.1-.8-.3-.2 0-.3-.2-.3-.5zm2.6-1.5h2.9c2 0 3-1.1 3-3.4v-7.4c0-2.2-1-3.4-3-3.4h-2.9v14.2zm13.4-3.2v-12.5c0-.3.1-.5.4-.7.3-.1.6-.2.9-.2.4 0 .7.1.9.2.3.1.4.4.4.7V199c0 1.1.3 2 .8 2.5.5.6 1.3.8 2.2.8 2 0 3-1.1 3-3.4v-12.5c0-.3.1-.5.4-.7.3-.1.6-.2.9-.2.4 0 .7.1.9.2.3.1.4.4.4.7V199c0 2-.5 3.5-1.5 4.4-1 .9-2.4 1.4-4.1 1.4-1.7 0-3.1-.5-4.1-1.4-.9-1-1.5-2.4-1.5-4.4zm23.4 4.7v-17.2c0-.3.1-.5.3-.7.2-.2.5-.2.8-.2h4.5c1.5 0 2.7.3 3.6 1 .9.7 1.4 1.8 1.4 3.5 0 2.2-.7 3.6-2.1 4.2.8.3 1.5.8 1.9 1.5.4.7.6 1.6.6 2.8v.5c0 1.9-.4 3.3-1.3 4.2s-2.1 1.3-3.6 1.3h-5c-.3 0-.6-.1-.8-.3-.2-.1-.3-.3-.3-.6zm2.6-10.5h2.9c1.7 0 2.5-.9 2.5-2.7 0-1.7-.9-2.5-2.6-2.5h-2.9v5.2zm0 9h3.1c1.9 0 2.8-1.1 2.8-3.2v-.4c0-1.1-.2-1.9-.7-2.4-.5-.5-1.2-.7-2.1-.7h-3.1v6.7zm11.8 1.3v-.2l4.9-16.9c.2-.6.8-.9 1.8-.9s1.6.3 1.8.9l4.9 16.9v.2c0 .3-.2.6-.6.8-.4.2-.8.4-1.2.4-.5 0-.8-.2-1-.6l-1-3.7h-6.1l-1 3.7c-.1.4-.4.6-.9.6-.4 0-.8-.1-1.1-.3-.4-.3-.5-.6-.5-.9zm4.1-5.4h4.9l-2.5-8.9-2.4 8.9zm12.1 3.7c0-.3.1-.7.3-1 .2-.3.5-.5.8-.5.2 0 .4.1.7.3.3.2.5.5.8.7.2.3.6.5 1.1.7.5.2 1.1.3 1.7.3.9 0 1.7-.2 2.3-.7.6-.5.9-1.2.9-2.1 0-.8-.3-1.5-.8-2.1-.6-.6-1.2-1-2-1.3-.8-.3-1.6-.7-2.4-1.1-.8-.4-1.5-1-2-1.7-.6-.8-.8-1.7-.8-2.9 0-.9.2-1.7.5-2.4s.8-1.2 1.4-1.6c.6-.4 1.2-.6 1.8-.8.6-.2 1.3-.2 2-.2.4 0 .9 0 1.4.1.5.1 1 .2 1.4.3.5.1.9.3 1.2.6.3.3.5.5.5.9 0 .3-.1.7-.3 1s-.5.5-.8.5c-.2 0-.4-.1-.7-.2-.3-.2-.7-.3-1.1-.5-.5-.2-1-.2-1.6-.2-.9 0-1.7.2-2.3.6-.6.4-.8 1-.8 1.8 0 .5.1 1 .4 1.3.3.4.7.7 1.2.9.5.2 1 .5 1.6.7.6.2 1.2.5 1.7.8.6.3 1.1.7 1.6 1.1.5.4.9 1 1.2 1.7.3.7.4 1.5.4 2.5 0 1.8-.5 3.2-1.5 4.1-1 .9-2.4 1.4-4.1 1.4-1.5 0-2.8-.3-3.9-1-1.3-.6-1.8-1.3-1.8-2zm14.6 0c0-.3.1-.7.3-1 .2-.3.5-.5.8-.5.2 0 .4.1.7.3.3.2.5.5.8.7.2.3.6.5 1.1.7.5.2 1.1.3 1.7.3.9 0 1.7-.2 2.3-.7.6-.5.9-1.2.9-2.1 0-.8-.3-1.5-.8-2.1-.6-.6-1.2-1-2-1.3-.8-.3-1.6-.7-2.4-1.1s-1.5-1-2-1.7c-.6-.8-.8-1.7-.8-2.9 0-.9.2-1.7.5-2.4s.8-1.2 1.4-1.6c.6-.4 1.2-.6 1.8-.8.6-.2 1.3-.2 2-.2.4 0 .9 0 1.4.1l1.5.3c.5.1.9.3 1.2.6.3.3.5.5.5.9 0 .3-.1.7-.3 1-.2.3-.5.5-.8.5-.2 0-.4-.1-.7-.2-.3-.2-.7-.3-1.1-.5-.5-.2-1-.2-1.6-.2-.9 0-1.7.2-2.3.6-.6.4-.8 1-.8 1.8 0 .5.1 1 .4 1.3.3.4.7.7 1.2.9.5.2 1 .5 1.6.7.6.2 1.2.5 1.7.8.6.3 1.1.7 1.6 1.1.5.4.9 1 1.2 1.7.3.7.4 1.5.4 2.5 0 1.8-.5 3.2-1.5 4.1-1 .9-2.4 1.4-4.1 1.4-1.5 0-2.8-.3-3.9-1-1.4-.6-1.9-1.3-1.9-2zm15.5 1.9v-17.2c0-.3.1-.5.4-.7.3-.1.6-.2.9-.2.4 0 .7.1.9.2.3.1.4.4.4.7v17.2c0 .3-.1.5-.4.7-.3.2-.6.2-.9.2-.3 0-.7-.1-.9-.2-.2-.2-.4-.4-.4-.7zm7.9 0v-17.2c0-.6.4-.9 1.3-.9.5 0 .8.1 1.1.3.3.2.6.6.9 1.2l5.5 11.3v-11.9c0-.3.1-.5.4-.7.3-.1.6-.2.9-.2.4 0 .7.1.9.2.3.1.4.4.4.7v17.2c0 .3-.1.5-.4.7-.3.2-.6.2-.9.2-.7 0-1.2-.3-1.6-1l-5.9-11.8v11.9c0 .3-.1.5-.4.7-.3.2-.6.2-.9.2-.3 0-.7-.1-.9-.2-.3-.2-.4-.4-.4-.7zm23.5 0v-17.3c0-.2.1-.5.3-.6.2-.2.5-.3.8-.3h4.4c1.7 0 3 .5 4.1 1.4 1 .9 1.5 2.4 1.5 4.4v7.4c0 2-.5 3.5-1.5 4.4-1 .9-2.4 1.4-4.1 1.4h-4.4c-.3 0-.6-.1-.8-.3-.2 0-.3-.2-.3-.5zm2.6-1.5h2.9c2 0 3-1.1 3-3.4v-7.4c0-2.2-1-3.4-3-3.4H400v14.2zm13.5 1.5v-17.2c0-.3.1-.5.3-.7.2-.2.5-.2.8-.2h8.8c.3 0 .5.1.6.4.1.2.2.5.2.8 0 .3-.1.6-.2.9-.2.2-.4.4-.6.4H416v6h3.8c.3 0 .5.1.6.3.2.2.2.5.2.8 0 .3-.1.5-.2.7-.1.2-.4.3-.6.3H416v6h7.4c.3 0 .5.1.6.4s.2.5.2.9c0 .3-.1.6-.2.8-.1.2-.4.4-.6.4h-8.8c-.3 0-.6-.1-.8-.2-.2-.3-.3-.5-.3-.8zm21.6-4.7v-7.6c0-2 .5-3.5 1.5-4.4 1-.9 2.3-1.4 4-1.4 1.7 0 3 .4 4.1 1.3 1 .9 1.5 2 1.5 3.4 0 .6-.1.9-.3 1.1-.2.2-.5.3-1 .3-.9 0-1.3-.3-1.3-.9-.1-1.9-1.1-2.8-2.9-2.8-2 0-3 1.1-3 3.4v7.6c0 2.2 1 3.4 3 3.4.6 0 1.1-.1 1.5-.3.4-.2.7-.4.9-.8.2-.3.3-.7.4-.9.1-.3.1-.6.1-1 0-.6.5-.9 1.3-.9.5 0 .8.1 1 .3.2.2.3.6.3 1.1 0 1.4-.5 2.6-1.6 3.5-1 .9-2.4 1.4-4.1 1.4-1.6 0-3-.5-4-1.4-.9-1-1.4-2.4-1.4-4.4zm15.6 4.7v-17.2c0-.3.1-.5.4-.7.3-.1.6-.2.9-.2.4 0 .7.1.9.2.3.1.4.4.4.7v7.2h6.2v-7.2c0-.3.1-.5.4-.7.3-.1.6-.2.9-.2.4 0 .7.1.9.2.3.1.4.4.4.7v17.2c0 .3-.1.5-.4.7-.3.2-.6.2-.9.2-.3 0-.7-.1-.9-.2-.3-.2-.4-.4-.4-.7v-7.9h-6.2v7.9c0 .3-.1.5-.4.7-.3.2-.6.2-.9.2-.3 0-.7-.1-.9-.2-.3-.2-.4-.4-.4-.7zm15.3-.2v-.2l4.9-16.9c.2-.6.8-.9 1.8-.9s1.6.3 1.8.9l4.9 16.9v.2c0 .3-.2.6-.6.8-.4.2-.8.4-1.2.4-.5 0-.8-.2-1-.6l-1-3.7h-6.1l-1 3.7c-.1.4-.4.6-.9.6-.4 0-.8-.1-1.1-.3-.3-.3-.5-.6-.5-.9zm4.2-5.4h4.9l-2.5-8.9-2.4 8.9zm12.9 5.6V187c0-.5.1-.8.4-1 .2-.2.6-.3.9-.3.5 0 .9.1 1.2.3.3.2.6.6.9 1.2l3.5 6.9 3.5-6.9c.3-.6.6-1 .9-1.2.3-.2.7-.3 1.2-.3.4 0 .7.1.9.3s.4.6.4 1v16.7c0 .3-.1.5-.4.7-.3.2-.6.2-.9.2-.3 0-.7-.1-.9-.2-.3-.2-.4-.4-.4-.7v-12.5l-3.3 6.5c-.2.4-.6.6-1 .6s-.7-.2-.9-.6l-3.3-6.6v12.6c0 .3-.1.5-.4.7-.3.2-.6.2-.9.2-.3 0-.7-.1-.9-.2-.3-.2-.5-.4-.5-.7zm19 0v-17.2c0-.3.1-.5.3-.7.2-.2.5-.2.8-.2h4.5c1.5 0 2.7.3 3.6 1 .9.7 1.4 1.8 1.4 3.5 0 2.2-.7 3.6-2.1 4.2.8.3 1.5.8 1.9 1.5.4.7.6 1.6.6 2.8v.5c0 1.9-.4 3.3-1.3 4.2-.9.9-2.1 1.3-3.6 1.3h-5c-.3 0-.6-.1-.8-.3-.2-.1-.3-.3-.3-.6zm2.6-10.5h3c1.7 0 2.5-.9 2.5-2.7 0-1.7-.9-2.5-2.6-2.5h-2.9v5.2zm0 9h3.1c1.9 0 2.8-1.1 2.8-3.2v-.4c0-1.1-.2-1.9-.7-2.4-.5-.5-1.2-.7-2.1-.7h-3.1v6.7zm13 1.5v-17.2c0-.3.1-.5.4-.7.3-.1.6-.2.9-.2.4 0 .7.1.9.2.3.1.4.4.4.7v15.7h6.4c.2 0 .4.1.6.4s.2.5.2.9c0 .3-.1.6-.2.9s-.3.4-.6.4h-7.9c-.3 0-.6-.1-.8-.2-.1-.4-.3-.6-.3-.9zm10.2-17c0-.3.2-.6.5-.8.4-.2.7-.3 1.1-.3.4 0 .7.2.9.6l4.1 8.2 4.1-8.2c.2-.4.5-.6.9-.6s.7.1 1.1.3c.4.2.5.5.5.8 0 .2 0 .3-.1.4l-5.1 9.7v6.9c0 .3-.1.5-.4.7-.3.2-.6.2-.9.2-.4 0-.7-.1-.9-.2-.3-.2-.4-.4-.4-.7v-6.6s0-.1-.1-.3l-5.1-9.7c-.2-.1-.2-.2-.2-.4z"
          fill="#002856"/>
    <path d="M290.8 102.1c0-.1 0-.2.1-.4l9.6-31.2c.3-.9 1.1-1.4 2.4-1.4 1.3 0 2.1.5 2.4 1.4l9.6 31.3v.3c0 .4-.3.8-.8 1.1s-1.1.5-1.7.5c-.8 0-1.2-.3-1.4-.9l-2.1-7h-12.4l-2.1 6.9c-.2.6-.7.9-1.4.9-.6 0-1.1-.2-1.6-.5-.3-.1-.6-.5-.6-1zm6.8-9.5h10.5l-5.2-17.7-5.3 17.7zm21 1.2v-23c0-.4.2-.8.6-1 .4-.2.9-.4 1.4-.4.5 0 1 .1 1.4.4.4.2.6.6.6 1v23c0 4.4 2.1 6.7 6.3 6.7 2 0 3.6-.6 4.7-1.7s1.6-2.8 1.6-5v-23c0-.9.7-1.4 2-1.4.5 0 1 .1 1.4.4.4.2.6.6.6 1v23c0 3.5-.9 6.1-2.8 7.8-1.9 1.6-4.4 2.5-7.5 2.5-3.1 0-5.6-.8-7.4-2.5-2-1.7-2.9-4.3-2.9-7.8zm24.4 8.1c0-.3.1-.6.3-.8l8.1-14.5-7.9-14.4c-.2-.3-.3-.7-.3-1 0-.5.2-1 .7-1.3.5-.3 1-.5 1.7-.5s1.2.5 1.7 1.5l6.6 12.5 6.7-12.5c.5-1 1.1-1.5 1.7-1.5.6 0 1.2.2 1.7.5s.7.8.7 1.3c0 .3-.1.7-.3 1l-7.9 14.4 8.1 14.5c.2.3.3.6.3.8 0 .5-.3.9-.8 1.3s-1.1.6-1.7.6c-.5 0-1-.4-1.5-1.3L354 89.7l-6.9 12.8c-.5.9-1 1.3-1.5 1.3-.6 0-1.1-.2-1.7-.6-.7-.3-.9-.8-.9-1.3zm-78.1 61.7c0-.8.3-1.6.9-2.4.6-.8 1.2-1.2 2-1.2.5 0 1 .3 1.8 1 .7.6 1.5 1.4 2.2 2.2.8.8 2 1.5 3.6 2.2 1.6.6 3.5 1 5.5 1 3.3 0 5.9-.8 7.8-2.4s2.8-4 2.8-7.1c0-2.8-.9-5.1-2.6-6.9-1.7-1.8-3.8-3.1-6.3-4-2.5-.9-4.9-1.9-7.4-3s-4.6-2.7-6.3-4.8c-1.7-2.2-2.6-5-2.6-8.4 0-2.7.5-5 1.5-7s2.4-3.5 4.1-4.5c1.7-1 3.5-1.8 5.3-2.2 1.8-.5 3.8-.7 5.9-.7 3.2 0 6.2.5 9.1 1.4 2.9.9 4.3 2.2 4.3 3.8 0 .7-.3 1.5-.8 2.3s-1.2 1.2-2 1.2c-.2 0-1.4-.5-3.5-1.5-2.2-1-4.5-1.5-7.2-1.5-3.1 0-5.7.6-7.6 1.9-1.9 1.3-2.9 3.3-2.9 6.1 0 2.4.9 4.3 2.6 5.7 1.7 1.5 3.9 2.6 6.3 3.5 2.5.9 5 1.9 7.4 3 2.5 1.1 4.6 2.9 6.3 5.4 1.7 2.5 2.6 5.7 2.6 9.5 0 5.3-1.5 9.3-4.6 12-3.1 2.7-7.2 4-12.2 4-4.6 0-8.4-1-11.6-2.9-2.8-1.9-4.4-3.8-4.4-5.7zm40.7-8.4V132c0-5.8 1.5-10 4.5-12.7 3-2.7 7-4 12-4s9.1 1.3 12.1 4 4.5 6.9 4.5 12.7v23.2c0 5.8-1.5 10-4.5 12.7-3 2.7-7.1 4-12.1 4s-9-1.3-12-4c-3-2.6-4.5-6.9-4.5-12.7zm6.4 0c0 7.3 3.4 10.9 10.1 10.9 3.2 0 5.7-.9 7.5-2.7 1.8-1.8 2.7-4.6 2.7-8.2V132c0-3.6-.9-6.4-2.7-8.2-1.8-1.8-4.3-2.7-7.5-2.7-6.7 0-10.1 3.6-10.1 10.9v23.2zm36.5 0v-37.7c0-.7.3-1.3 1-1.7.6-.4 1.4-.6 2.3-.6.9 0 1.6.2 2.3.6.6.4 1 .9 1 1.7v37.7c0 7.3 3.4 10.9 10.3 10.9 3.3 0 5.9-.9 7.7-2.7 1.8-1.8 2.7-4.6 2.7-8.2v-37.7c0-1.5 1.1-2.2 3.2-2.2.9 0 1.6.2 2.3.6.6.4 1 .9 1 1.7v37.7c0 5.8-1.5 10-4.6 12.7-3.1 2.7-7.2 4-12.2 4-5.1 0-9.1-1.3-12.2-4-3.3-2.7-4.8-7-4.8-12.8zm43.9 14v-51.7c0-.6.2-1.1.7-1.5.4-.4 1-.6 1.7-.7h14.1c5.1 0 9.3 1.2 12.4 3.6 3.1 2.4 4.7 6.3 4.7 11.8 0 8.5-3.8 13.5-11.5 15l11.4 21.6c.2.4.3.7.3 1.1 0 .8-.4 1.6-1.2 2.3-.8.7-1.7 1-2.6 1-1.1 0-2.1-.8-2.9-2.5l-11.6-22.5h-8.8v22.6c0 .7-.3 1.3-1 1.7-.6.4-1.4.6-2.3.6s-1.6-.2-2.3-.6c-.8-.5-1.1-1.1-1.1-1.8zm6.5-28h9.9c7.1 0 10.6-3.4 10.6-10.1 0-6.7-3.5-10-10.6-10h-9.9v20.1zm34.4 14V132c0-5.7 1.5-10 4.6-12.7 3.1-2.7 7-4.1 12-4.1s9.1 1.3 12.1 3.8 4.5 5.7 4.5 9.6c0 1.4-.3 2.3-.8 2.8s-1.3.7-2.5.7c-2.1 0-3.1-.7-3.2-2.2-.3-5.9-3.6-8.8-10-8.8-6.8 0-10.2 3.6-10.2 10.9v23.2c0 7.3 3.5 10.9 10.5 10.9 2 0 3.7-.3 5-.8 1.3-.6 2.3-1.4 3-2.5.6-1.1 1.1-2 1.3-2.8.2-.8.4-1.8.5-3.1.2-1.5 1.2-2.2 3.2-2.2 1.1 0 1.9.3 2.5.8.5.5.8 1.5.8 2.8 0 3.9-1.5 7.1-4.6 9.7-3.1 2.6-7.1 3.9-12.1 3.9-4.9 0-8.8-1.4-11.9-4.1-3.2-2.6-4.7-6.8-4.7-12.6zm41 14v-51.6c0-.7.3-1.3.9-1.7.6-.4 1.3-.6 2-.6h27.4c.7 0 1.3.3 1.7.8.4.6.6 1.2.6 2s-.2 1.5-.6 2.1c-.4.6-.9.9-1.6.9h-23.8v19.5h12c.7 0 1.2.3 1.6.8.4.5.6 1.2.6 2 0 .7-.2 1.3-.6 1.8-.4.5-.9.8-1.7.8h-12v19.6h23.8c.7 0 1.2.3 1.6.9.4.6.6 1.3.6 2.1s-.2 1.4-.6 2c-.4.6-.9.8-1.7.8h-27.4c-.8 0-1.5-.2-2-.6-.5-.3-.8-.9-.8-1.6zm36.2-5.6c0-.8.3-1.6.9-2.4.6-.8 1.2-1.2 2-1.2.5 0 1.1.3 1.8 1 .7.6 1.5 1.4 2.2 2.2.8.8 2 1.5 3.6 2.2 1.6.6 3.5 1 5.5 1 3.3 0 6-.8 7.8-2.4 1.9-1.6 2.8-4 2.8-7.1 0-2.8-.9-5.1-2.6-6.9-1.7-1.8-3.8-3.1-6.3-4-2.5-.9-4.9-1.9-7.4-3s-4.6-2.7-6.3-4.8c-1.7-2.2-2.6-5-2.6-8.4 0-2.7.5-5 1.5-7s2.4-3.5 4.1-4.5c1.7-1 3.5-1.8 5.3-2.2 1.8-.5 3.8-.7 5.9-.7 3.2 0 6.2.5 9.1 1.4 2.9.9 4.3 2.2 4.3 3.8 0 .7-.3 1.5-.8 2.3-.5.8-1.2 1.2-2 1.2-.2 0-1.4-.5-3.5-1.5s-4.5-1.5-7.2-1.5c-3.1 0-5.7.6-7.6 1.9-1.9 1.3-2.9 3.3-2.9 6.1 0 2.4.9 4.3 2.6 5.7 1.7 1.5 3.9 2.6 6.3 3.5 2.5.9 5 1.9 7.4 3s4.6 2.9 6.3 5.4c1.7 2.5 2.6 5.7 2.6 9.5 0 5.3-1.5 9.3-4.6 12-3.1 2.7-7.2 4-12.2 4-4.6 0-8.4-1-11.6-2.9-2.8-1.9-4.4-3.8-4.4-5.7z"
          fill="#789904"/>
    <path d="M264.5 229.7c0-.2.1-.4.2-.5.1-.2.3-.3.4-.3.1 0 .2.1.4.2s.3.3.5.5.5.3.8.5c.4.1.8.2 1.3.2.8 0 1.4-.2 1.8-.6.4-.4.7-.9.7-1.6 0-.6-.2-1.2-.6-1.6-.4-.4-.9-.7-1.4-.9-.6-.2-1.1-.4-1.7-.7-.6-.2-1.1-.6-1.5-1.1-.4-.5-.6-1.1-.6-1.9 0-.6.1-1.2.4-1.6.2-.5.5-.8.9-1 .4-.2.8-.4 1.2-.5.4-.1.9-.2 1.4-.2.7 0 1.4.1 2.1.3.7.2 1 .5 1 .9 0 .2-.1.3-.2.5s-.3.3-.5.3c0 0-.3-.1-.8-.3-.5-.2-1-.3-1.6-.3-.7 0-1.3.1-1.7.4s-.7.8-.7 1.4c0 .5.2 1 .6 1.3.4.3.9.6 1.5.8.6.2 1.1.4 1.7.7.6.3 1 .7 1.4 1.2.4.6.6 1.3.6 2.2 0 1.2-.4 2.1-1.1 2.7-.7.6-1.6.9-2.8.9-1 0-1.9-.2-2.6-.7-.8-.3-1.1-.8-1.1-1.2zm10.5-1.4v-1.8c0-.9.3-1.7 1-2.3.7-.7 1.5-1 2.5-1 .9 0 1.7.3 2.4.9.7.6 1 1.4 1 2.3 0 .3 0 .6-.1.8-.1.2-.2.4-.4.4-.2.1-.3.1-.5.2h-4.5v.5c0 .6.2 1.2.7 1.5.5.4 1.1.6 1.8.6.4 0 .7-.1 1-.2.3-.1.5-.2.7-.3.2-.1.3-.2.4-.2.2 0 .3.1.4.2.1.1.2.3.2.4 0 .3-.3.5-.8.8-.5.3-1.2.4-2 .4-1.1 0-2.1-.3-2.8-.9-.6-.5-1-1.3-1-2.3zm1.5-1.5h3.3c.3 0 .5 0 .6-.1.1-.1.2-.2.2-.4 0-.5-.2-1-.6-1.4-.4-.4-.9-.6-1.4-.6-.6 0-1 .2-1.4.6-.4.4-.6.8-.6 1.4v.5zm.5-6.1c0-.2.1-.3.2-.4l2.1-1.1h.2c.1 0 .3.1.4.2.1.1.1.3.1.4 0 .2-.1.3-.2.4l-2 1c-.1 0-.2.1-.2.1-.1 0-.3-.1-.4-.2-.1-.2-.2-.3-.2-.4zm7.8 7.6v-1.8c0-1 .3-1.8.9-2.5.6-.6 1.5-1 2.6-1 .7 0 1.3.1 1.8.4.5.3.7.5.7.8 0 .2-.1.3-.2.5s-.3.2-.4.2l-.6-.3c-.4-.2-.8-.3-1.3-.3-.7 0-1.2.2-1.6.5-.4.4-.5.9-.5 1.5v1.7c0 1.4.7 2.1 2.2 2.1.5 0 .9-.1 1.3-.3l.6-.3c.2 0 .3.1.5.2.1.2.2.3.2.5 0 .3-.3.6-.8.8-.5.3-1.1.4-1.9.4-1.2 0-2-.3-2.6-.9-.6-.4-.9-1.2-.9-2.2zm9.2 0v-4.6c0-.1.1-.3.2-.4.1-.1.3-.2.5-.2s.4.1.5.2c.1.1.2.2.2.4v4.6c0 .5.2 1 .6 1.4.4.4.9.6 1.4.6.5 0 1-.2 1.4-.6.4-.4.6-.9.6-1.4v-4.6c0-.1.1-.2.2-.4.1-.1.3-.2.5-.2s.4.1.5.2c.1.1.2.2.2.4v4.6c0 .9-.3 1.7-1 2.4s-1.5 1-2.4 1c-.9 0-1.8-.3-2.5-1-.6-.7-.9-1.5-.9-2.4zm10.5 2.7v-7.3c0-.2.1-.3.2-.4.1-.1.3-.1.5-.1s.3 0 .5.1c.1.1.2.2.2.4v.8c.2-.4.5-.7.9-1 .4-.3.9-.4 1.4-.4h.6c.2 0 .3.1.4.2.1.1.2.3.2.5s-.1.3-.2.5c-.1.1-.2.2-.4.2h-.6c-.6 0-1.1.2-1.6.7-.4.5-.7 1.1-.7 1.9v4c0 .1-.1.2-.2.4s-.3.2-.5.2-.4-.1-.5-.2c-.1-.2-.2-.4-.2-.5zm7.7-10.4c-.2-.2-.3-.4-.3-.6 0-.2.1-.4.3-.6.2-.2.4-.2.7-.2.2 0 .5.1.6.2.2.2.3.4.3.6 0 .2-.1.4-.3.6-.2.2-.4.3-.6.3-.3 0-.5-.1-.7-.3zm-.1 10.4v-7.3c0-.2.1-.3.2-.4.1-.1.3-.1.5-.1s.4 0 .5.1c.1.1.2.2.2.4v7.3c0 .1-.1.2-.2.4-.1.1-.3.2-.5.2s-.4-.1-.5-.2-.2-.3-.2-.4zm5.1-2.1v-9.1c0-.1.1-.3.2-.4.2-.1.3-.1.5-.1s.4.1.5.1c.2.1.2.2.2.4v3.4h2.2c.1 0 .2.1.3.2.1.1.1.3.1.4 0 .2 0 .3-.1.4-.1.1-.2.2-.3.2h-2.2v4.5c0 .5.1.9.3 1.1.2.2.6.3 1.1.3h.5c.2 0 .4.1.5.2.1.1.2.3.2.5s-.1.3-.2.5c-.1.1-.3.2-.5.2h-.5c-1.8-.2-2.8-1.1-2.8-2.8zm6.6-.6v-1.8c0-.9.3-1.7 1-2.3.7-.7 1.5-1 2.5-1 .9 0 1.7.3 2.4.9.7.6 1 1.4 1 2.3 0 .3 0 .6-.1.8-.1.2-.2.4-.4.4-.2.1-.3.1-.5.2h-4.5v.5c0 .6.2 1.2.7 1.5.5.4 1.1.6 1.8.6.4 0 .7-.1 1-.2.3-.1.5-.2.7-.3s.3-.2.4-.2c.2 0 .3.1.4.2.1.1.2.3.2.4 0 .3-.3.5-.8.8-.5.3-1.2.4-2 .4-1.1 0-2.1-.3-2.8-.9-.6-.5-1-1.3-1-2.3zm1.5-1.5h3.3c.3 0 .5 0 .6-.1.1-.1.2-.2.2-.4 0-.5-.2-1-.6-1.4-.4-.4-.9-.6-1.4-.6-.6 0-1 .2-1.4.6-.4.4-.6.8-.6 1.4v.5zm.6-6.1c0-.2.1-.3.2-.4l2.1-1.1h.2c.1 0 .3.1.4.2.1.1.1.3.1.4 0 .2-.1.3-.2.4l-2 1c-.1 0-.2.1-.2.1-.1 0-.3-.1-.4-.2-.2-.2-.2-.3-.2-.4zm12.6 8.6c0-.9.4-1.6 1.1-1.9.7-.4 1.7-.5 3.1-.5h.8v-.4c0-.6-.2-1.1-.5-1.5-.3-.4-.8-.7-1.5-.7-.5 0-.9.1-1.3.3l-.6.3c-.2 0-.3-.1-.4-.2-.1-.2-.1-.3-.1-.5 0-.3.3-.5.8-.7.5-.2 1.1-.3 1.7-.3 1.1 0 2 .3 2.5 1s.8 1.5.8 2.4v4.5c0 .2-.1.3-.2.4-.1.1-.3.1-.5.1s-.3 0-.5-.1c-.1-.1-.2-.2-.2-.4v-.7c-.8.9-1.7 1.3-2.7 1.3-.7 0-1.3-.2-1.7-.6-.4-.4-.6-1-.6-1.8zm1.5-.1c0 .4.1.8.4 1 .2.2.6.3 1 .3.5 0 1-.2 1.4-.6.5-.4.7-.8.7-1.2v-.9H342c-.2 0-.5.1-.8.1-.3.1-.5.1-.7.2-.2.1-.3.2-.4.4-.1.2-.1.4-.1.7zm8.6 1.8v-12.3c0-.2.1-.3.2-.4.1-.1.3-.1.5-.1s.4 0 .5.1c.1.1.2.2.2.4V231c0 .1-.1.2-.2.4-.1.1-.3.2-.5.2s-.4-.1-.5-.2c-.1-.1-.2-.3-.2-.4zm5.4-10.4c-.2-.2-.3-.4-.3-.6 0-.2.1-.4.3-.6.2-.2.4-.2.7-.2.2 0 .5.1.6.2.2.2.3.4.3.6 0 .2-.1.4-.3.6-.2.2-.4.3-.6.3-.3 0-.5-.1-.7-.3zm-.1 10.4v-7.3c0-.2.1-.3.2-.4.1-.1.3-.1.5-.1s.4 0 .5.1c.1.1.2.2.2.4v7.3c0 .1-.1.2-.2.4-.1.1-.3.2-.5.2s-.4-.1-.5-.2-.2-.3-.2-.4zm5.1 0v-7.3c0-.2.1-.3.2-.4.1-.1.3-.1.5-.1s.3 0 .5.1.2.2.2.4v.7c.2-.4.5-.7.9-1 .4-.3.9-.4 1.4-.4.5 0 1 .2 1.5.5.4.3.7.8 1 1.3.3-.6.7-1 1.2-1.3.5-.3 1-.5 1.5-.5.8 0 1.5.3 2.1.9.6.6.9 1.4.9 2.5v4.5c0 .1-.1.2-.2.4-.1.1-.3.2-.5.2s-.4-.1-.5-.2c-.1-.1-.2-.2-.2-.4v-4.5c0-.6-.2-1.1-.6-1.5-.4-.4-.8-.6-1.3-.6s-.9.2-1.3.6c-.4.4-.6.9-.6 1.4v4.6c0 .2-.1.3-.2.4-.1.1-.3.1-.5.1s-.4 0-.5-.1c-.1-.1-.2-.2-.2-.4v-4.6c0-.6-.2-1.1-.5-1.4-.4-.4-.8-.6-1.3-.6s-.9.2-1.3.6c-.4.4-.6.9-.6 1.5v4.5c0 .1-.1.2-.2.4-.1.1-.3.2-.5.2s-.4-.1-.5-.2-.4-.2-.4-.3zm15.1-2.7v-1.8c0-.9.3-1.7 1-2.3.7-.7 1.5-1 2.5-1 .9 0 1.7.3 2.4.9.7.6 1 1.4 1 2.3 0 .3 0 .6-.1.8-.1.2-.2.4-.4.4-.2.1-.3.1-.5.2h-4.5v.5c0 .6.2 1.2.7 1.5.5.4 1.1.6 1.8.6.4 0 .7-.1 1-.2.3-.1.5-.2.7-.3.2-.1.3-.2.4-.2.2 0 .3.1.4.2.1.1.2.3.2.4 0 .3-.3.5-.8.8-.5.3-1.2.4-2 .4-1.1 0-2.1-.3-2.8-.9-.6-.5-1-1.3-1-2.3zm1.5-1.5h3.3c.3 0 .5 0 .6-.1.1-.1.2-.2.2-.4 0-.5-.2-1-.6-1.4-.4-.4-.9-.6-1.4-.6-.6 0-1 .2-1.4.6-.4.4-.6.8-.6 1.4v.5zm8.6 4.2v-7.3c0-.2.1-.3.2-.4.1-.1.3-.1.5-.1s.3.1.5.2c.1.1.2.2.2.4v.7c.2-.4.5-.7.9-1 .4-.3.9-.4 1.5-.4.8 0 1.6.3 2.2 1 .6.7.9 1.5.9 2.4v4.5c0 .2-.1.3-.2.4-.1.1-.3.1-.5.1s-.4 0-.5-.1c-.1-.1-.2-.2-.2-.4v-4.5c0-.5-.2-1-.6-1.4-.4-.4-.9-.6-1.4-.6-.5 0-.9.2-1.3.6-.4.4-.6.9-.6 1.5v4.5c0 .1-.1.2-.2.4-.2.1-.3.2-.5.2s-.4-.1-.5-.2c-.3-.2-.4-.4-.4-.5zm10.4-2.1v-9.1c0-.1.1-.3.2-.4.2-.1.3-.1.5-.1s.4.1.5.1c.2.1.2.2.2.4v3.4h2.2c.1 0 .2.1.3.2.1.1.1.3.1.4 0 .2 0 .3-.1.4-.1.1-.2.2-.3.2H396v4.5c0 .5.1.9.3 1.1.2.2.6.3 1.1.3h.5c.2 0 .4.1.5.2.1.1.2.3.2.5s-.1.3-.2.5c-.1.1-.3.2-.5.2h-.5c-1.8-.2-2.8-1.1-2.8-2.8zm6.6.4c0-.9.4-1.6 1.1-1.9.7-.4 1.7-.5 3.1-.5h.8v-.4c0-.6-.2-1.1-.5-1.5-.3-.4-.8-.7-1.5-.7-.5 0-.9.1-1.3.3l-.6.3c-.2 0-.3-.1-.4-.2-.1-.2-.1-.3-.1-.5 0-.3.3-.5.8-.7.5-.2 1.1-.3 1.7-.3 1.1 0 2 .3 2.5 1s.8 1.5.8 2.4v4.5c0 .2-.1.3-.2.4s-.3.1-.5.1-.3 0-.5-.1c-.1-.1-.2-.2-.2-.4v-.7c-.8.9-1.7 1.3-2.7 1.3-.7 0-1.3-.2-1.7-.6-.4-.4-.6-1-.6-1.8zm1.4-.1c0 .4.1.8.4 1 .2.2.6.3 1 .3.5 0 1-.2 1.4-.6.5-.4.7-.8.7-1.2v-.9h-1.5c-.2 0-.5.1-.8.1-.3.1-.5.1-.7.2-.2.1-.3.2-.4.4 0 .2-.1.4-.1.7zm8.6-8.6c-.2-.2-.3-.4-.3-.6 0-.2.1-.4.3-.6.2-.2.4-.2.7-.2.2 0 .5.1.6.2.2.2.3.4.3.6 0 .2-.1.4-.3.6-.2.2-.4.3-.6.3s-.5-.1-.7-.3zm0 10.4v-7.3c0-.2.1-.3.2-.4.1-.1.3-.1.5-.1s.4 0 .5.1c.1.1.2.2.2.4v7.3c0 .1-.1.2-.2.4-.1.1-.3.2-.5.2s-.4-.1-.5-.2c-.2-.1-.2-.3-.2-.4zm5.1 0v-7.3c0-.2.1-.3.2-.4.1-.1.3-.1.5-.1s.3 0 .5.1c.1.1.2.2.2.4v.8c.2-.4.5-.7.9-1 .4-.3.9-.4 1.4-.4h.6c.2 0 .3.1.4.2.1.1.2.3.2.5s-.1.3-.2.5-.2.2-.4.2h-.6c-.6 0-1.1.2-1.6.7-.4.5-.7 1.1-.7 1.9v4c0 .1-.1.2-.2.4-.1.1-.3.2-.5.2s-.4-.1-.5-.2-.2-.4-.2-.5zm7-2.7v-1.8c0-.9.3-1.7 1-2.3.7-.7 1.5-1 2.5-1 .9 0 1.7.3 2.4.9.7.6 1 1.4 1 2.3 0 .3 0 .6-.1.8-.1.2-.2.4-.4.4-.2.1-.3.1-.5.2h-4.5v.5c0 .6.2 1.2.7 1.5.5.4 1.1.6 1.8.6.4 0 .7-.1 1-.2.3-.1.5-.2.7-.3.2-.1.3-.2.4-.2.2 0 .3.1.4.2.1.1.2.3.2.4 0 .3-.3.5-.8.8-.5.3-1.2.4-2 .4-1.1 0-2.1-.3-2.8-.9-.6-.5-1-1.3-1-2.3zm1.5-1.5h3.3c.3 0 .5 0 .6-.1.1-.1.2-.2.2-.4 0-.5-.2-1-.6-1.4-.4-.4-.9-.6-1.4-.6-.6 0-1 .2-1.4.6-.4.4-.6.8-.6 1.4v.5zm13.4 1.5v-1.8c0-.9.3-1.7 1-2.3.7-.7 1.5-1 2.5-1 .9 0 1.7.3 2.4.9.7.6 1 1.4 1 2.3 0 .3 0 .6-.1.8-.1.2-.2.4-.4.4-.2.1-.3.1-.5.2h-4.5v.5c0 .6.2 1.2.7 1.5.5.4 1.1.6 1.8.6.4 0 .7-.1 1-.2.3-.1.5-.2.7-.3.2-.1.3-.2.4-.2.2 0 .3.1.4.2.1.1.2.3.2.4 0 .3-.3.5-.8.8-.5.3-1.2.4-2 .4-1.1 0-2.1-.3-2.8-.9-.6-.5-1-1.3-1-2.3zm1.5-1.5h3.3c.3 0 .5 0 .6-.1.1-.1.2-.2.2-.4 0-.5-.2-1-.6-1.4-.4-.4-.9-.6-1.4-.6-.6 0-1 .2-1.4.6-.4.4-.6.8-.6 1.4v.5zm8.6 2.1v-9.1c0-.1.1-.3.2-.4.2-.1.3-.1.5-.1s.4.1.5.1c.2.1.2.2.2.4v3.4h2.2c.1 0 .2.1.3.2.1.1.1.3.1.4 0 .2 0 .3-.1.4-.1.1-.2.2-.3.2h-2.2v4.5c0 .5.1.9.3 1.1.2.2.6.3 1.1.3h.5c.2 0 .4.1.5.2.1.1.2.3.2.5s-.1.3-.2.5c-.1.1-.3.2-.5.2h-.5c-1.9-.2-2.8-1.1-2.8-2.8zm12.1 2.1v-7.3c0-.2.1-.3.2-.4.1-.1.3-.1.5-.1s.3 0 .5.1.2.2.2.4v.7c.2-.4.5-.7.9-1 .4-.3.9-.4 1.4-.4s1 .2 1.5.5c.4.3.7.8 1 1.3.3-.6.7-1 1.2-1.3.5-.3 1-.5 1.5-.5.8 0 1.5.3 2.1.9.6.6.9 1.4.9 2.5v4.5c0 .1-.1.2-.2.4-.1.1-.3.2-.5.2s-.4-.1-.5-.2-.2-.2-.2-.4v-4.5c0-.6-.2-1.1-.6-1.5-.4-.4-.8-.6-1.3-.6s-.9.2-1.3.6c-.4.4-.6.9-.6 1.4v4.6c0 .2-.1.3-.2.4-.1.1-.3.1-.5.1s-.4 0-.5-.1c-.1-.1-.2-.2-.2-.4v-4.6c0-.6-.2-1.1-.5-1.4-.4-.4-.8-.6-1.3-.6s-.9.2-1.3.6c-.4.4-.6.9-.6 1.5v4.5c0 .1-.1.2-.2.4-.1.1-.3.2-.5.2s-.4-.1-.5-.2-.4-.2-.4-.3zm14.9-1.7c0-.9.4-1.6 1.1-1.9.7-.4 1.7-.5 3.1-.5h.8v-.4c0-.6-.2-1.1-.5-1.5-.3-.4-.8-.7-1.5-.7-.5 0-.9.1-1.3.3l-.6.3c-.2 0-.3-.1-.4-.2-.1-.2-.1-.3-.1-.5 0-.3.3-.5.8-.7.5-.2 1.1-.3 1.7-.3 1.1 0 2 .3 2.5 1s.8 1.5.8 2.4v4.5c0 .2-.1.3-.2.4-.1.1-.3.1-.5.1s-.3 0-.5-.1c-.1-.1-.2-.2-.2-.4v-.7c-.8.9-1.7 1.3-2.7 1.3-.7 0-1.3-.2-1.7-.6-.4-.4-.6-1-.6-1.8zm1.5-.1c0 .4.1.8.4 1 .2.2.6.3 1 .3.5 0 1-.2 1.4-.6.5-.4.7-.8.7-1.2v-.9h-1.5c-.2 0-.5.1-.8.1-.3.1-.5.1-.7.2-.2.1-.3.2-.4.4-.1.2-.1.4-.1.7zm8.5-.3v-9.1c0-.1.1-.3.2-.4.2-.1.3-.1.5-.1s.4.1.5.1c.2.1.2.2.2.4v3.4h2.2c.1 0 .2.1.3.2.1.1.1.3.1.4 0 .2 0 .3-.1.4-.1.1-.2.2-.3.2h-2.2v4.5c0 .5.1.9.3 1.1.2.2.6.3 1.1.3h.5c.2 0 .4.1.5.2.1.1.2.3.2.5s-.1.3-.2.5c-.1.1-.3.2-.5.2h-.5c-1.8-.2-2.8-1.1-2.8-2.8zm6.6-.6v-1.8c0-.9.3-1.7 1-2.3.7-.7 1.5-1 2.5-1 .9 0 1.7.3 2.4.9.7.6 1 1.4 1 2.3 0 .3 0 .6-.1.8-.1.2-.2.4-.4.4-.2.1-.3.1-.5.2h-4.5v.5c0 .6.2 1.2.7 1.5.5.4 1.1.6 1.8.6.4 0 .7-.1 1-.2.3-.1.5-.2.7-.3.2-.1.3-.2.4-.2.2 0 .3.1.4.2.1.1.2.3.2.4 0 .3-.3.5-.8.8-.5.3-1.2.4-2 .4-1.1 0-2.1-.3-2.8-.9-.6-.5-1-1.3-1-2.3zm1.5-1.5h3.3c.3 0 .5 0 .6-.1.1-.1.2-.2.2-.4 0-.5-.2-1-.6-1.4-.4-.4-.9-.6-1.4-.6-.6 0-1 .2-1.4.6-.4.4-.6.8-.6 1.4v.5zm.5-6.1c0-.2.1-.3.2-.4l2.1-1.1h.2c.1 0 .3.1.4.2.1.1.1.3.1.4 0 .2-.1.3-.2.4l-2 1c-.1 0-.2.1-.2.1-.1 0-.3-.1-.4-.2-.1-.2-.2-.3-.2-.4zM502 231v-7.3c0-.2.1-.3.2-.4.1-.1.3-.1.5-.1s.3 0 .5.1c.1.1.2.2.2.4v.8c.2-.4.5-.7.9-1 .4-.3.9-.4 1.4-.4h.6c.2 0 .3.1.4.2.1.1.2.3.2.5s-.1.3-.2.5-.2.2-.4.2h-.6c-.6 0-1.1.2-1.6.7-.4.5-.7 1.1-.7 1.9v4c0 .1-.1.2-.2.4s-.3.2-.5.2-.4-.1-.5-.2c-.2-.2-.2-.4-.2-.5zm7.7-10.4c-.2-.2-.3-.4-.3-.6 0-.2.1-.4.3-.6.2-.2.4-.2.7-.2.2 0 .5.1.6.2.2.2.3.4.3.6 0 .2-.1.4-.3.6-.2.2-.4.3-.6.3s-.5-.1-.7-.3zm-.1 10.4v-7.3c0-.2.1-.3.2-.4.1-.1.3-.1.5-.1s.4 0 .5.1c.1.1.2.2.2.4v7.3c0 .1-.1.2-.2.4-.1.1-.3.2-.5.2s-.4-.1-.5-.2c-.1-.1-.2-.3-.2-.4zm4.8-2.7v-1.8c0-.9.3-1.7 1-2.3.7-.7 1.5-1 2.5-1 .9 0 1.7.3 2.4.9.7.6 1 1.4 1 2.3 0 .3 0 .6-.1.8-.1.2-.2.4-.4.4-.2.1-.3.1-.5.2h-4.5v.5c0 .6.2 1.2.7 1.5.5.4 1.1.6 1.8.6.4 0 .7-.1 1-.2.3-.1.5-.2.7-.3s.3-.2.4-.2c.2 0 .3.1.4.2.1.1.2.3.2.4 0 .3-.3.5-.8.8-.5.3-1.2.4-2 .4-1.1 0-2.1-.3-2.8-.9-.6-.5-1-1.3-1-2.3zm1.5-1.5h3.3c.3 0 .5 0 .6-.1.1-.1.2-.2.2-.4 0-.5-.2-1-.6-1.4-.4-.4-.9-.6-1.4-.6-.6 0-1 .2-1.4.6-.4.4-.6.8-.6 1.4v.5zm8.8 4.2v-12.3c0-.2.1-.3.2-.4.1-.1.3-.1.5-.1s.4 0 .5.1c.1.1.2.2.2.4V231c0 .1-.1.2-.2.4-.1.1-.3.2-.5.2s-.4-.1-.5-.2c-.2-.1-.2-.3-.2-.4zm5.4 0v-12.3c0-.2.1-.3.2-.4.1-.1.3-.1.5-.1s.4 0 .5.1c.1.1.2.2.2.4V231c0 .1-.1.2-.2.4-.1.1-.3.2-.5.2s-.4-.1-.5-.2c-.1-.1-.2-.3-.2-.4zm5-2.7v-1.8c0-.9.3-1.7 1-2.3.7-.7 1.5-1 2.5-1 .9 0 1.7.3 2.4.9.7.6 1 1.4 1 2.3 0 .3 0 .6-.1.8-.1.2-.2.4-.4.4-.2.1-.3.1-.5.2h-4.5v.5c0 .6.2 1.2.7 1.5.5.4 1.1.6 1.8.6.4 0 .7-.1 1-.2.3-.1.5-.2.7-.3.2-.1.3-.2.4-.2.2 0 .3.1.4.2.1.1.2.3.2.4 0 .3-.3.5-.8.8-.5.3-1.2.4-2 .4-1.1 0-2.1-.3-2.8-.9-.7-.5-1-1.3-1-2.3zm1.4-1.5h3.3c.3 0 .5 0 .6-.1.1-.1.2-.2.2-.4 0-.5-.2-1-.6-1.4-.4-.4-.9-.6-1.4-.6-.6 0-1 .2-1.4.6-.4.4-.6.8-.6 1.4v.5z"
          fill="#002856"/></svg>