<svg xmlns="http://www.w3.org/2000/svg" viewBox="0 0 256 256" xml:space="preserve"><path fill="#002856" d="M100.3 206.4c5.6 19.1-.7 25.4-4.1 27.4H125c2.6-10.7 6.3-29.3 8.2-38.7l.6-3.3.5-2.5-.2.1.2-4.7-.1-2.7-.1-.9-.2-1.7-.1-1-.2-1.5-.2-1-.3-1.4-.3-1-.3-1.3-.3-1-.4-1.2-.4-1-.4-1.1-.4-1-.5-1.1-.5-.9-.5-1-.5-.9-.5-1-.5-.9-.6-1-.5-.9-.6-.9-.6-.8-.6-.9-.6-.8-.6-.8-.6-.8-.6-.8-.6-.8-.6-.8-.6-.8-.6-.7-.7-.8-.6-.7-1.1-1.3-.6-.7-.6-.8a3 3 0 0 1-.5-.7l-.6-.7-.5-.7-.6-.7-.5-.7a3 3 0 0 1-.5-.7l-.5-.7-.5-.7-.4-.7-.5-.7-.4-.7-.4-.7-.4-.7-.4-.7-.3-.7-.3-.7-.3-.7-.3-.7-.2-.7-.2-.7-.1-.7-.1-.8-.1-.7-.1-1c0-.7-.8-1.1-1.4-.6l-.4.3-.1.1-.3.2-.3.3-.3.3-.4.3-.3.3-.4.4-.3.4-.4.4-.3.4-.4.4-.3.4-.3.5-.3.4-.3.5-.3.5-.3.5-.2.5-.2.6-.2.5-.2.6-.1.5-.1.6v1.6l.1.7.1.5.3.8.1.4.7 1.2c5.3 8.3 11 21.8 2.8 24.9-1.3.5-2.7.9-4.3 1.3l-1.9.4c-1.7.3-3.4.5-5.3.6H91c-7.3 0-15.9-2.3-25.1-9.6 0 0 19.9 9.5 31.9 5.5 0 0-6.7-2.2-12.7-19.9-6-17.7-7.2-27.4-17.6-24.5 0 0 9.1 28.6 15.5 36.4 0 0-10-8.9-15.5-27.5C62.2 113 53 114.4 53 114.4s7.5 31.6 16.3 41.3c0 0-5.8-2.6-13.4-21.4-4-9.8-7.4-26.5-19.8-23.4 0 0 14.6 30 14 36 0 0-1.6-3.8-7.5-16.2-2.7-5.7-3.8-19.5-18-19.1 0 0 5.1 11.4 6.6 19.9 1.6 8.6 6.3 26.4 31.6 43.3 17 11.2 31.6 19.5 37.5 31.6zm-34.1-45.7zm163.9-13.5-.5 1.2c-.4 1.1-1 2.3-1.7 3.6l-2.2 3.9-2.5 3.7c-.8 1.2-1.7 2.2-2.5 3.1-1.6 1.7-3.2 2.6-3.2 2.6s.7-1.4 1.9-3.2c7.3-10.4 17.7-32.5 17.7-32.5s-5.8-1.8-13.1 11.9a77.7 77.7 0 0 1-13 17.4l-.4.3c-1 .7-2.2 1.2-2.2 1.2l1.1-1.5 1.3-1.7 1.6-2.2 1.9-2.6 2.1-3 2.2-3.2 2.3-3.3 2.2-3.3 2.1-3.3 1.9-3.1a93 93 0 0 0 1.6-2.8l1.3-2.4 1-1.9 4.7-10.5c-8.5-2.8-13.7 4.3-17.7 12-7.2 12-21.2 33-25.1 31.4-2.9-1.2 6.9-15.9 12-27.5l7.5-14.7c-8.4-2.9-13.4 3.1-17.1 10.2a43.3 43.3 0 0 0-2.4 4.6c-1.1 2.4-19.6 33.7-26.5 33.7-7 0-10.4-20.6-11-23.7l-.6-1.8-.2-.4-.5-.7-.3-.4-.5-.5-.4-.3-.5-.4-.4-.3-.6-.3-.5-.2-.6-.2-.5-.2-.6-.2-.5-.1-.6-.1-.5-.1h-3.3l-.6.1-.5.1-.6.1-.4.1-.5.1-.4.1-.5.1-.3.1-.6.2c-.5.1-.7.8-.3 1.2l.8.7.5.5.5.6.5.5.5.6.4.6.4.6.4.6.4.7.4.7.3.5c1.6 5.2 4.7 10.5.9 25.4-3.2 12.6 2.2 23.4 8.3 31.1 3.3 9.1 1.8 22.8-.1 32.8H181c-4.1-29.6 10.7-38.5 13.5-39.9a62.6 62.6 0 0 0 28.8-23.3c14-22.6 8.3-22.9 6.8-23.1z"/>
    <path fill="#00B2E3"
          d="M163.1 41.8c-6.4-18.2-27.2-14.8-34.4-5.6a31.9 31.9 0 0 0-5.5 15.6c-3-4.9-6.9-8.9-12.3-10-20.2-3.2-22 23.3-10 48 4.5 8.7 18.7 28.7 27.8 30.5.7.6 3.9-3.3 3.2-3.9-2.8 0-18.1-14.5-25.2-28.9-4.9-9.4-10-27.2-4.9-35.7 2-3.3 4-4.3 7.8-1.7 6.4 4.1 11.9 15.9 14.3 22.7.6 3.1 7.6 1 7.5-2l-.4-2.2c-2.8-14.4 6-33.9 12.7-26.9 7.7 8 6.4 40.9 3.5 51.6a88 88 0 0 1-7.6 19.4 29.7 29.7 0 0 1-10.2 10.1s-1.8 3.2.7 4.7c0 0 6.7-1.1 16-12.5 0 0 4.3-5.6 8.4-15.4l2.2-4.9c6.9-17.3 11.2-40.3 6.4-52.9z"/>
    <path fill="#789904"
          d="M194.3 63.8c-9.3-1.6-18.6 3.7-23.2 13.3l-.7 1.5c-.2.6 0 1.2.5 1.5l.5.1c.4 0 .8-.2 1-.6l.3-.6c4.2-6.6 12-9.8 21-8.7 3 .4 4.3-1.1 4.5-2.4.4-1.6-.9-3.6-3.9-4.1z"/>
    <path fill="#00B2E3"
          d="M194.6 98c-1.1-4-3.6-7.2-7-9.2-6.6-3.8-14.7-3-21.2 2.1-7.8 6.2-10.4 16.2-7 26.8.1.3.4.6.8.8l.4.1c.3 0 .6-.1.8-.3.3-.3.5-.8.3-1.2-2.6-8.9.3-17.8 7.3-22.7 5-3.5 10.7-3.7 15.1-.4 1.7 1.3 2.8 4 2.4 4.8-.1.1-.6.2-1.3-.1l-.2-.1c-1.7-.5-3.6-1.1-5.6-.5a7.7 7.7 0 0 0-4.8 3.8 8.1 8.1 0 0 0-.7 6.1c1.1 3.8 5 6.2 8.1 6.8 2.2.4 4.5 0 6.6-1.1 1.8-1 3.4-2.5 4.6-4.3 2.2-3.3 2.6-6.9 1.4-11.4z"/>
    <path fill="#789904"
          d="M180.8 124.4a8.2 8.2 0 0 0-6.1-6.4 9 9 0 0 0-8 1.9 9.1 9.1 0 0 0-3.8 7.2c-.1 3.1 1.4 6.3 3.8 8.3.2.2.5.3.7.3.3 0 .6-.1.8-.3.4-.4.5-1 .2-1.5-1.5-2.2-2.2-4.3-1.9-5.9.2-.9.8-1.7 1.8-2.2l.7-.3.1.5v.2a6 6 0 0 0 1 3.8 5.8 5.8 0 0 0 3.7 2.4c1.5.3 3.1-.1 4.3-1 2.3-1.6 3-4.7 2.7-7z"/>
    <path fill="#00B2E3"
          d="M82.2 96.3c-3.4-3.6-7.4-5.7-10.7-5.5a9.6 9.6 0 0 0-7.7 3.6 8.3 8.3 0 0 0-.9 9.1c1.2 2 3.8 4.1 6.7 3.9a6 6 0 0 0 5.6-6.3c-.1-1.6-1-2.8-1.7-3.8l-.1-.1.8-.1c1.3-.2 3.2.5 5 2 3 2.5 6.7 7.7 7 14.2 0 .6.5 1.1 1.1 1.1.6 0 1.1-.5 1.2-1.1.5-6-1.8-12.2-6.3-17z"/>
    <path fill="#789904"
          d="M98.9 106.7a46.8 46.8 0 0 0-24-37.3 8.5 8.5 0 0 0-4.9-1.2c-1.2.1-2 .6-2.5 1.4-.4.8-.4 1.8.2 2.9a11 11 0 0 0 3.9 3.6c4.5 2.6 8.6 5.8 12.3 9.6a44.3 44.3 0 0 1 12.8 26.6c.1.6.6 1 1.2 1h.1c.6 0 1.1-.5 1.1-1.2l-.2-5.4z"/></svg>